<svg width="32" height="32" viewBox="0 0 32 32" fill="none" xmlns="http://www.w3.org/2000/svg">
    <rect width="32" height="32" rx="6" fill="#0EA5E9" />
    <path
        d="M8 12.5C8 11.6716 8.67157 11 9.5 11H15.5C16.3284 11 17 11.6716 17 12.5C17 13.3284 16.3284 14 15.5 14H9.5C8.67157 14 8 13.3284 8 12.5Z"
        fill="white" />
    <path
        d="M8 19.5C8 18.6716 8.67157 18 9.5 18H22.5C23.3284 18 24 18.6716 24 19.5C24 20.3284 23.3284 21 22.5 21H9.5C8.67157 21 8 20.3284 8 19.5Z"
        fill="white" />
    <circle cx="21" cy="12.5" r="2.5" fill="#FACC15" />
</svg>